<svg xmlns="http://www.w3.org/2000/svg" fill-rule="evenodd" stroke-linejoin="round" stroke-miterlimit="2" clip-rule="evenodd" viewBox="0 0 64 64" id="rhesus-negative"><path fill="none" d="M0 0h64v64H0z"></path><path fill="url(#a)" d="M33.378 13.44a1.04 1.04 0 0 0-1.756 0s-7.155 11.228-11.449 21.333c-1.891 4.451-3.215 8.699-3.215 11.727 0 8.578 6.964 15.542 15.542 15.542S48.042 55.078 48.042 46.5c0-3.028-1.324-7.276-3.215-11.727C40.533 24.668 33.378 13.44 33.378 13.44Zm-.878 2.53c2.022 3.292 7.086 11.796 10.409 19.618 1.763 4.148 3.049 8.09 3.049 10.912 0 7.428-6.03 13.458-13.458 13.458S19.042 53.928 19.042 46.5c0-2.822 1.286-6.764 3.049-10.912 3.323-7.822 8.387-16.326 10.409-19.617v-.001Z" transform="translate(-.5 -5.5)"></path><path fill="url(#b)" d="M31.251 52.03s7.369 1.168 10.706-6.62a1.04 1.04 0 1 0-1.914-.82c-2.663 6.212-8.479 5.38-8.479 5.38a1.043 1.043 0 0 0-.313 2.06Z"></path><path fill="url(#c)" d="M29.624 35.856h4.936c.354 0 .642-.467.642-1.042s-.288-1.041-.642-1.041h-4.936c-.355 0-.643.466-.643 1.041s.288 1.042.643 1.042Z" transform="matrix(1.62089 0 0 1 -20.017 1.186)"></path><defs><linearGradient id="a" x1="0" x2="1" y1="0" y2="0" gradientTransform="matrix(64 -64 64 64 .5 69.5)" gradientUnits="userSpaceOnUse"><stop offset="0" stop-color="#ff000e"></stop><stop offset="1" stop-color="#642020"></stop></linearGradient><linearGradient id="b" x1="0" x2="1" y1="0" y2="0" gradientTransform="matrix(64 -64 64 64 0 64)" gradientUnits="userSpaceOnUse"><stop offset="0" stop-color="#ff000e"></stop><stop offset="1" stop-color="#642020"></stop></linearGradient><linearGradient id="c" x1="0" x2="1" y1="0" y2="0" gradientTransform="scale(55.8394 90.5097) rotate(-45 .948 .08)" gradientUnits="userSpaceOnUse"><stop offset="0" stop-color="#ff000e"></stop><stop offset="1" stop-color="#642020"></stop></linearGradient></defs></svg>